# xmcd
#
# Track frame offsets: 
#        151
#        13777
#        26913
#        39078
#        51007
#        62376
#        78922
#        93380
#        98053
#        111196
#        122636
#
# Disc length: 1779 seconds
#
# Revision: 0
# Processed by: cddbd v1.4PL0 Copyright (c) Steve Scherf et al.
# Submitted via: ExactAudioCopy v0.90b4
#
DISCID=7d06f10b
DTITLE=Tennessee Mafia Jug Band, The - Barnyard Frolic
DYEAR=2003
DGENRE=Bluegrass
TTITLE0=Charmin' Betsy
TTITLE1=Why Don't You Love Me Anymore
TTITLE2=No Letter In The Mail
TTITLE3=Wreck On The Highway
TTITLE4=Jesse Can't Come
TTITLE5=Smoke On The Water
TTITLE6=Tied Down
TTITLE7=Joe's Four Leaf Clover
TTITLE8=The Precious Jewl
TTITLE9=The Bicycle Wreck
TTITLE10=Too Old To Cut The Mustard
EXTD=
EXTT0=
EXTT1=
EXTT2=
EXTT3=
EXTT4=
EXTT5=
EXTT6=
EXTT7=
EXTT8=
EXTT9=
EXTT10=
PLAYORDER=
